# xmcd
#
# Track frame offsets:
#	150
#	16332
#	35517
#	51865
#	70412
#	87870
#	107642
#	131525
#	151165
#	168827
#	187280
#	208172
#	225165
#
# Disc length: 3235 seconds
#
# Revision: 0
# Processed by: cddbd v1.4PL0 Copyright (c) Steve Scherf et al.
# Submitted via: EasyCDDAExtractor 4.6.0.1
#
DISCID=a70ca10d
DTITLE=Jessica
DYEAR=1998
DGENRE=
TTITLE0=Tell Me What You Like
TTITLE1=I Do
TTITLE2=How Will I Know(Who You Are)
TTITLE3=Goodbye
TTITLE4=Falling In Love
TTITLE5=If I Ever See Heaven Again
TTITLE6=Anywhere Is Paradise
TTITLE7=Tell Me Why
TTITLE8=Turned And Walked Away
TTITLE9=A Little Bit Longer
TTITLE10=Private Eve
TTITLE11=Ain't Nothing Going On But The Rent
TTITLE12=Just Wanna Be With You
EXTD=
EXTT0=
EXTT1=
EXTT2=
EXTT3=
EXTT4=
EXTT5=
EXTT6=
EXTT7=
EXTT8=
EXTT9=
EXTT10=
EXTT11=
EXTT12=
PLAYORDER=
